<?xml version="1.0" encoding="UTF-8" standalone="no"?>
<!-- Created with Inkscape (http://www.inkscape.org/) -->

<svg
   xmlns:dc="http://purl.org/dc/elements/1.1/"
   xmlns:cc="http://creativecommons.org/ns#"
   xmlns:rdf="http://www.w3.org/1999/02/22-rdf-syntax-ns#"
   xmlns:svg="http://www.w3.org/2000/svg"
   xmlns="http://www.w3.org/2000/svg"
   xmlns:sodipodi="http://sodipodi.sourceforge.net/DTD/sodipodi-0.dtd"
   xmlns:inkscape="http://www.inkscape.org/namespaces/inkscape"
   width="56.392994"
   height="73.236984"
   id="svg2"
   version="1.1"
   inkscape:version="0.48.4 r9939"
   sodipodi:docname="idiocy.svg">
  <defs
     id="defs4" />
  <sodipodi:namedview
     id="base"
     pagecolor="#001900"
     bordercolor="#666666"
     borderopacity="1.0"
     inkscape:pageopacity="0"
     inkscape:pageshadow="2"
     inkscape:zoom="6.3990008"
     inkscape:cx="39.412691"
     inkscape:cy="32.282404"
     inkscape:document-units="px"
     inkscape:current-layer="layer1"
     showgrid="false"
     fit-margin-top="8"
     fit-margin-left="8"
     fit-margin-right="8"
     fit-margin-bottom="8"
     inkscape:window-width="1916"
     inkscape:window-height="1161"
     inkscape:window-x="0"
     inkscape:window-y="37"
     inkscape:window-maximized="0"
     units="pt" />
  <metadata
     id="metadata7">
    <rdf:RDF>
      <cc:Work
         rdf:about="">
        <dc:format>image/svg+xml</dc:format>
        <dc:type
           rdf:resource="http://purl.org/dc/dcmitype/StillImage" />
        <dc:title></dc:title>
      </cc:Work>
    </rdf:RDF>
  </metadata>
  <g
     inkscape:label="Layer 1"
     inkscape:groupmode="layer"
     id="layer1"
     transform="translate(-156.0496,-179.91187)">
    <g
       style="font-size:17.25570679px;font-style:normal;font-variant:normal;font-weight:normal;font-stretch:normal;line-height:125%;letter-spacing:0px;word-spacing:0px;fill:#f9f9f9;fill-opacity:1;stroke:none;font-family:Lotusflower;-inkscape-font-specification:Lotusflower"
       id="text2985">
      <path
         d="m 175.0538,209.25531 0,33.89354 -7.82461,0 0,-33.89354 7.82461,0 m -3.93196,-19.07002 c 1.41549,5e-5 2.6213,0.4981 3.61741,1.49414 0.99608,0.99615 1.49413,2.18885 1.49414,3.57809 -1e-5,1.41555 -0.49806,2.62136 -1.49414,3.61741 -0.99611,0.99614 -2.18881,1.49419 -3.57809,1.49415 -1.41552,4e-5 -2.62132,-0.49801 -3.61741,-1.49415 -0.9961,-1.02227 -1.49415,-2.24117 -1.49415,-3.65673 0,-1.36303 0.49805,-2.54262 1.49415,-3.53877 0.99609,-0.99604 2.18879,-1.49409 3.57809,-1.49414"
         style="font-size:80.52663422px;font-weight:bold;fill:#f9f9f9;font-family:Futura;-inkscape-font-specification:Futura Bold"
         id="path3041" />
    </g>
    <g
       transform="matrix(0,1,-1,0,0,0)"
       style="font-size:12px;font-style:normal;font-variant:normal;font-weight:normal;font-stretch:normal;line-height:125%;letter-spacing:0px;word-spacing:0px;fill:#f9f9f9;fill-opacity:1;stroke:none;font-family:Lotusflower;-inkscape-font-specification:Lotusflower"
       id="text2989">
      <path
         d="m 191.59351,-189.16026 0,9.33105 -1.40821,0 0,-9.33105 1.40821,0"
         style="font-size:14px;font-weight:bold;fill:#f9f9f9;font-family:Futura;-inkscape-font-specification:Futura Bold"
         id="path3026" />
      <path
         d="m 193.84937,-179.82921 0,-9.33105 1.96191,0 c 0.99804,1e-5 1.78417,0.1071 2.3584,0.32129 1.02082,0.37826 1.79328,1.03907 2.31738,1.98242 0.3828,0.69271 0.57421,1.47884 0.57422,2.3584 -1e-5,1.61784 -0.62208,2.87565 -1.86621,3.77343 -0.59701,0.42839 -1.21453,0.69271 -1.85254,0.79297 -0.41928,0.0684 -0.93881,0.10254 -1.55859,0.10254 l -1.93457,0 m 1.4082,-1.32617 0.63574,0 c 0.71549,0 1.28743,-0.082 1.71582,-0.24609 0.67903,-0.26433 1.20312,-0.70866 1.57227,-1.33301 0.30533,-0.51953 0.458,-1.10514 0.458,-1.75684 0,-0.76562 -0.20736,-1.44237 -0.62207,-2.03027 -0.41472,-0.58333 -0.97526,-0.96842 -1.68164,-1.15527 -0.38281,-0.10481 -0.86361,-0.15722 -1.44238,-0.15723 l -0.63574,0 0,6.67871"
         style="font-size:14px;font-weight:bold;fill:#f9f9f9;font-family:Futura;-inkscape-font-specification:Futura Bold"
         id="path3028" />
      <path
         d="m 204.25366,-189.16026 0,9.33105 -1.4082,0 0,-9.33105 1.4082,0"
         style="font-size:14px;font-weight:bold;fill:#f9f9f9;font-family:Futura;-inkscape-font-specification:Futura Bold"
         id="path3030" />
      <path
         d="m 210.94604,-189.338 c 1.41276,1e-5 2.60221,0.52866 3.56836,1.58594 0.85677,0.93425 1.28515,2.02344 1.28516,3.26758 -1e-5,0.85677 -0.21648,1.65886 -0.64941,2.40625 -0.4284,0.73828 -1.01401,1.32389 -1.75684,1.75683 -0.76563,0.44662 -1.60417,0.66993 -2.51562,0.66993 -0.80665,0 -1.57911,-0.20052 -2.31739,-0.60157 -0.88867,-0.48307 -1.55176,-1.14388 -1.98926,-1.98242 -0.35091,-0.67447 -0.52636,-1.4401 -0.52636,-2.29687 0,-1.33073 0.49674,-2.47233 1.49023,-3.42481 0.52409,-0.50585 1.13021,-0.87499 1.81836,-1.10742 0.53776,-0.18228 1.06868,-0.27343 1.59277,-0.27344 m -0.0137,1.32617 c -1.09375,1e-5 -1.97787,0.41017 -2.65234,1.23047 -0.54232,0.66082 -0.81348,1.41505 -0.81348,2.2627 0,1.03451 0.34635,1.88444 1.03907,2.5498 0.68814,0.66081 1.48339,0.99122 2.38574,0.99121 0.64713,1e-5 1.24641,-0.16406 1.79785,-0.49218 0.5651,-0.33724 0.99348,-0.78613 1.28516,-1.34668 0.26887,-0.51042 0.40331,-1.06868 0.40332,-1.67481 -1e-5,-0.97981 -0.33042,-1.81607 -0.99122,-2.50879 -0.6517,-0.67447 -1.46973,-1.01171 -2.4541,-1.01172"
         style="font-size:14px;font-weight:bold;fill:#f9f9f9;font-family:Futura;-inkscape-font-specification:Futura Bold"
         id="path3032" />
      <path
         d="m 224.4812,-188.6544 0,1.66797 c -0.41472,-0.35091 -0.78614,-0.59472 -1.11426,-0.73145 -0.46485,-0.19596 -0.93425,-0.29394 -1.4082,-0.29395 -0.64258,1e-5 -1.23047,0.16635 -1.76367,0.49903 -0.56511,0.34636 -0.99577,0.82715 -1.29199,1.44238 -0.24154,0.50131 -0.36231,1.03679 -0.36231,1.60645 0,1.07096 0.37825,1.9414 1.13477,2.61132 0.65624,0.58334 1.41731,0.87501 2.2832,0.875 0.58788,1e-5 1.15071,-0.14811 1.68848,-0.44433 0.21418,-0.11849 0.49218,-0.32357 0.83398,-0.61524 l 0,1.69532 c -0.80665,0.46028 -1.65202,0.69043 -2.53613,0.69043 -0.83855,0 -1.61557,-0.19597 -2.33106,-0.58789 -0.86133,-0.47396 -1.51985,-1.15528 -1.97558,-2.04395 -0.34636,-0.68359 -0.51953,-1.40592 -0.51953,-2.16699 0,-0.79752 0.18912,-1.55631 0.56738,-2.27637 0.44205,-0.83853 1.06412,-1.49023 1.86621,-1.95508 0.75651,-0.43749 1.58821,-0.65624 2.49512,-0.65625 0.83853,1e-5 1.64973,0.22788 2.43359,0.6836"
         style="font-size:14px;font-weight:bold;fill:#f9f9f9;font-family:Futura;-inkscape-font-specification:Futura Bold"
         id="path3034" />
      <path
         d="m 228.13843,-183.86241 -3.05567,-5.29785 1.62012,0 2.13281,3.73242 2.14649,-3.73242 1.62011,0 -3.05566,5.29785 0,4.0332 -1.4082,0 0,-4.0332"
         style="font-size:14px;font-weight:bold;fill:#f9f9f9;font-family:Futura;-inkscape-font-specification:Futura Bold"
         id="path3036" />
      <path
         d="m 233.573,-181.33311 c 0.23242,0 0.43066,0.082 0.59472,0.24609 0.16406,0.16406 0.2461,0.3623 0.2461,0.59473 0,0.23242 -0.082,0.43066 -0.2461,0.59472 -0.16406,0.16406 -0.3623,0.2461 -0.59472,0.2461 -0.23243,0 -0.43067,-0.082 -0.59473,-0.2461 -0.16406,-0.16862 -0.24609,-0.37142 -0.24609,-0.6084 0,-0.2233 0.082,-0.41699 0.24609,-0.58105 0.16406,-0.16406 0.3623,-0.24609 0.59473,-0.24609"
         style="font-size:14px;font-weight:bold;fill:#f9f9f9;font-family:Futura;-inkscape-font-specification:Futura Bold"
         id="path3038" />
    </g>
    <g
       transform="matrix(0,1,-1,0,0,0)"
       style="font-size:12px;font-style:normal;font-variant:normal;font-weight:normal;font-stretch:normal;line-height:125%;letter-spacing:0px;word-spacing:0px;fill:#f9f9f9;fill-opacity:1;stroke:none;font-family:Lotusflower;-inkscape-font-specification:Lotusflower"
       id="text3012">
      <path
         d="m 194.81323,-202.4426 c 1.41276,1e-5 2.60221,0.52866 3.56836,1.58594 0.85676,0.93425 1.28515,2.02344 1.28516,3.26758 -1e-5,0.85677 -0.21648,1.65886 -0.64942,2.40625 -0.42839,0.73828 -1.014,1.32389 -1.75683,1.75684 -0.76563,0.44661 -1.60418,0.66992 -2.51563,0.66992 -0.80664,0 -1.5791,-0.20052 -2.31738,-0.60157 -0.88867,-0.48307 -1.55176,-1.14387 -1.98926,-1.98242 -0.35091,-0.67447 -0.52637,-1.4401 -0.52636,-2.29687 -1e-5,-1.33073 0.49674,-2.47233 1.49023,-3.42481 0.52409,-0.50585 1.1302,-0.87499 1.81836,-1.10742 0.53775,-0.18228 1.06868,-0.27343 1.59277,-0.27344 m -0.0137,1.32618 c -1.09375,0 -1.97787,0.41016 -2.65234,1.23046 -0.54232,0.66082 -0.81348,1.41505 -0.81348,2.2627 0,1.03451 0.34635,1.88444 1.03906,2.5498 0.68815,0.66081 1.4834,0.99122 2.38574,0.99122 0.64713,0 1.24642,-0.16407 1.79786,-0.49219 0.56509,-0.33724 0.99348,-0.78613 1.28515,-1.34668 0.26887,-0.51042 0.40331,-1.06868 0.40332,-1.67481 -1e-5,-0.97981 -0.33041,-1.81607 -0.99121,-2.50879 -0.6517,-0.67447 -1.46973,-1.01171 -2.4541,-1.01171"
         style="font-size:14px;font-weight:bold;fill:#f9f9f9;font-family:Futura;-inkscape-font-specification:Futura Bold"
         id="path3019" />
      <path
         d="m 204.60913,-196.90549 2.8916,3.97168 -1.72265,0 -2.66602,-3.82129 -0.25293,0 0,3.82129 -1.4082,0 0,-9.33105 1.64746,0 c 0.70638,1e-5 1.25781,0.057 1.6543,0.1709 0.66536,0.19141 1.16894,0.56283 1.51074,1.11425 0.27343,0.44207 0.41015,0.92742 0.41015,1.45606 0,0.48764 -0.11849,0.94564 -0.35546,1.37402 -0.36459,0.66537 -0.93425,1.08008 -1.70899,1.24414 m -1.75,-1.07324 0.45117,0 c 0.61979,1e-5 1.08691,-0.11165 1.40137,-0.33496 0.39192,-0.27343 0.58789,-0.66992 0.58789,-1.18945 0,-0.48763 -0.1823,-0.85905 -0.54687,-1.11426 -0.3099,-0.21419 -0.77475,-0.32128 -1.39454,-0.32129 l -0.49902,0 0,2.95996"
         style="font-size:14px;font-weight:bold;fill:#f9f9f9;font-family:Futura;-inkscape-font-specification:Futura Bold"
         id="path3021" />
      <path
         d="m 213.48218,-197.79416 3.85547,0 c -1e-5,0.52409 -0.016,0.93653 -0.0479,1.23731 -0.11394,1.0345 -0.53776,1.90039 -1.27148,2.59765 -0.84311,0.80209 -1.85938,1.20313 -3.04883,1.20313 -0.78841,0 -1.53125,-0.18913 -2.22851,-0.56739 -0.88868,-0.48763 -1.56088,-1.18489 -2.0166,-2.09179 -0.33725,-0.67448 -0.50586,-1.39681 -0.50586,-2.16699 0,-0.96159 0.25292,-1.83887 0.75878,-2.63184 0.4694,-0.72916 1.09603,-1.29426 1.87989,-1.69531 0.70182,-0.35546 1.44921,-0.5332 2.24219,-0.53321 1.04361,1e-5 1.97557,0.30079 2.79589,0.90235 0.30533,0.22331 0.64941,0.55372 1.03223,0.99121 l -1.00488,0.96387 c -0.77475,-1.02083 -1.70899,-1.53125 -2.80274,-1.53125 -1.00261,0 -1.85026,0.36003 -2.54297,1.08007 -0.6289,0.6517 -0.94336,1.46974 -0.94336,2.45411 0,1.04362 0.37142,1.89811 1.11426,2.56347 0.69726,0.62435 1.45377,0.93653 2.26953,0.93653 0.73828,0 1.38541,-0.25521 1.94141,-0.76563 0.50585,-0.46028 0.79068,-1.00032 0.85449,-1.62012 l -2.33105,0 0,-1.32617"
         style="font-size:14px;font-weight:bold;fill:#f9f9f9;font-family:Futura;-inkscape-font-specification:Futura Bold"
         id="path3023" />
    </g>
  </g>
</svg>
